<svg viewBox="-29 0 512 512.00085" xmlns="http://www.w3.org/2000/svg"><path d="m170.683594 468.480469c-6.878906 0-13.226563-.8125-18.640625-1.898438-10.6875-2.144531-17.613281-12.550781-15.464844-23.238281s12.542969-17.613281 23.238281-15.464844c32.089844 6.445313 45.117188-16.097656 52.867188-36.464844 3.875-10.1875 15.273437-15.300781 25.46875-11.425781 10.1875 3.875 15.304687 15.28125 11.425781 25.46875-19.613281 51.539063-53.023437 63.023438-78.894531 63.023438zm0 0" fill="#495059"/><g fill="#ddaf89"><path d="m368.066406 462.15625c-1.996094 0-4.023437-.242188-6.042968-.75-13.214844-3.328125-21.230469-16.738281-17.902344-29.953125 2.261718-8.972656 1.929687-22.128906-4.144532-29.804687-4.664062-5.890626-13.367187-8.789063-25.921874-8.589844-13.625.183594-24.839844-10.667969-25.042969-24.292969-.207031-13.625 10.667969-24.835937 24.292969-25.046875 35.691406-.507812 55.261718 14.546875 65.359374 27.304688 17.65625 22.300781 18.449219 52.0625 13.308594 72.480468-2.820312 11.191406-12.871094 18.652344-23.90625 18.652344zm0 0"/><path d="m277.148438 504.5c-5.335938 0-10.714844-1.726562-15.234376-5.28125-10.710937-8.425781-12.566406-23.9375-4.140624-34.648438 6.472656-8.230468 9.210937-18.28125 6.96875-25.605468-2.980469-9.75-14.972657-15.441406-24.507813-18.503906-12.976563-4.167969-20.117187-18.058594-15.949219-31.035157 4.160156-12.972656 18.054688-20.117187 31.03125-15.949219 20.738282 6.65625 47.394532 20.921876 56.613282 51.054688 7.03125 22.996094 1.285156 49.371094-15.371094 70.546875-4.867188 6.191406-12.101563 9.421875-19.410156 9.421875zm0 0"/><path d="m134.742188 383.125c-25.25 0-50.730469-8.277344-72.585938-24.21875-11.007812-8.03125-13.421875-23.464844-5.390625-34.472656 8.03125-11.007813 23.464844-13.421875 34.476563-5.390625 7.4375 5.425781 34.113281 22.257812 65.09375 10.984375 12.804687-4.667969 26.960937 1.9375 31.625 14.746094 4.660156 12.800781-1.941407 26.960937-14.746094 31.621093-12.40625 4.511719-25.410156 6.730469-38.472656 6.730469zm0 0"/><path d="m355.476562 304.234375c-12.367187 0-23.03125-9.273437-24.480468-21.851563-1.5625-13.539062 8.148437-25.773437 21.6875-27.332031 23.953125-2.761719 38.585937-14.203125 43.480468-34.011719 3.273438-13.226562 16.648438-21.292968 29.875-18.027343 13.230469 3.269531 21.300782 16.644531 18.027344 29.871093-9.914062 40.109376-41.164062 66.054688-85.738281 71.1875-.957031.109376-1.910156.164063-2.851563.164063zm0 0"/></g><path d="m386.859375 266.933594c-2.515625-6.90625-5.675781-13.480469-9.402344-19.699219-6.667969 4.050781-14.917969 6.679687-24.773437 7.816406-13.539063 1.558594-23.246094 13.796875-21.6875 27.332031 1.449218 12.578126 12.117187 21.855469 24.480468 21.855469.941407 0 1.894532-.058593 2.851563-.167969 12.789063-1.472656 24.476563-4.667968 34.882813-9.410156-.949219-9.386718-3.058594-18.679687-6.351563-27.726562zm0 0" fill="#d1a582"/><path d="m376.445312 368.371094c-10.640624-12.09375-29.898437-25.125-63.136718-24.652344-13.625.210938-24.503906 11.421875-24.296875 25.046875s11.417969 24.476563 25.042969 24.292969c12.554687-.199219 21.257812 2.699218 25.921874 8.589844 1.203126 1.523437 2.175782 3.265624 2.953126 5.140624 13.503906-10.675781 24.886718-23.660156 33.515624-38.417968zm0 0" fill="#d1a582"/><path d="m312.175781 425.394531c-.082031-.289062-.160156-.574219-.246093-.863281-9.21875-30.132812-35.875-44.398438-56.613282-51.054688-12.976562-4.167968-26.867187 2.976563-31.03125 15.949219-4.164062 12.976563 2.972656 26.867188 15.949219 31.035157 9.167969 2.941406 20.582031 8.332031 24.101563 17.40625 12.78125-1.09375 25.433593-3.894532 37.742187-8.375 3.433594-1.25 6.800781-2.621094 10.097656-4.097657zm0 0" fill="#d1a582"/><path d="m126.457031 333.285156c1.019531 8.855469 3.074219 17.625 6.183594 26.175782 3 8.238281 6.914063 16.015624 11.625 23.261718 9.835937-.820312 19.566406-2.914062 28.949219-6.328125 12.800781-4.660156 19.40625-18.820312 14.742187-31.625-4.660156-12.804687-18.816406-19.410156-31.621093-14.746093-10.671876 3.886718-20.835938 4.433593-29.878907 3.261718zm0 0" fill="#d1a582"/><path d="m372.769531 272.070312c-20.542969-56.453124-87.800781-83.796874-150.222656-61.078124s-96.371094 86.894531-75.824219 143.347656c20.542969 56.449218 87.800782 83.796875 150.222656 61.078125 62.421876-22.71875 96.371094-86.898438 75.824219-143.347657zm0 0" fill="#ddaf89"/><path d="m337.941406 210.417969c-19.332031 33.0625-49.875 59.832031-88.683594 73.957031-38.804687 14.125-79.410156 13.25-115.472656.347656-3.113281 9.773438-5.003906 19.863282-5.507812 30.058594-.6875 13.886719 9.070312 26.144531 22.746094 28.660156 37.652343 6.917969 77.585937 4.21875 116.160156-9.824218 38.574218-14.039063 70.898437-37.636719 95.296875-67.140626 8.859375-10.714843 8.457031-26.378906-.996094-36.578124-6.941406-7.484376-14.875-14-23.542969-19.480469zm0 0" fill="#7f9ae6"/><path d="m194.703125 294.640625c-20.960937.453125-41.589844-3.003906-60.917969-9.917969-3.113281 9.773438-5.003906 19.863282-5.507812 30.058594-.6875 13.890625 9.070312 26.144531 22.746094 28.660156 19.578124 3.597656 39.773437 4.566406 60.074218 2.722656-11.757812-11.164062-17.285156-32.332031-16.394531-51.523437zm0 0" fill="#5e78bf"/><path d="m149.75 139.105469c-4.464844 1.621093-9.460938 1.902343-14.375.492187l-34.066406-9.761718c-14.917969-4.277344-30.574219 2.226562-38.070313 15.816406l-12.03125 21.824218c-6.21875 11.269532-20.390625 15.367188-31.660156 9.152344-11.273437-6.214844-15.367187-20.390625-9.15625-31.660156l12.039063-21.824219c8.675781-15.738281 22.597656-28.203125 39.195312-35.097656s35.25-7.96875 52.523438-3.015625l34.070312 9.765625c12.371094 3.546875 19.527344 16.449219 15.980469 28.820313-2.140625 7.457031-7.679688 13.023437-14.449219 15.488281zm0 0" fill="#495059"/><path d="m240.574219 116.039062c-6.289063 3.519532-14.121094 4.078126-21.164063.828126-11.683594-5.394532-16.785156-19.238282-11.390625-30.925782l14.855469-32.175781c7.53125-16.316406 20.53125-29.742187 36.585938-37.808594 16.0625-8.0625 34.59375-10.464843 52.179687-6.757812l24.386719 5.136719c12.59375 2.65625 20.652344 15.015624 17.996094 27.609374-2.652344 12.59375-15.011719 20.652344-27.605469 17.996094l-24.386719-5.136718c-15.1875-3.199219-30.335938 4.40625-36.839844 18.496093l-14.855468 32.175781c-2.140626 4.640626-5.617188 8.246094-9.761719 10.5625zm0 0" fill="#495059"/><path d="m254.054688 297.554688c111.167968-40.460938 142.730468-109.621094 100.996093-175.632813-44.847656-70.941406-113.125-93.859375-189.027343-66.234375-75.902344 27.625-113.472657 89.070312-102.230469 172.242188 10.464843 77.394531 79.097656 110.085937 190.261719 69.625zm0 0" fill="#ddaf89"/><path d="m324.421875 330.21875c0 18.558594-15.042969 33.597656-33.597656 33.597656-18.554688 0-33.59375-15.039062-33.59375-33.597656 0-18.554688 15.039062-33.59375 33.59375-33.59375 18.554687 0 33.597656 15.039062 33.597656 33.59375zm0 0" fill="#f6e06a"/><path d="m161.960938 180.371094c-5.214844-14.328125-24.027344-20.636719-42.019532-14.085938-17.992187 6.546875-28.351562 23.46875-23.136718 37.796875 5.214843 14.328125 24.027343 20.636719 42.019531 14.085938 17.992187-6.546875 28.351562-23.46875 23.136719-37.796875zm0 0" fill="#ffdbdb"/><path d="m279.625 137.53125c5.214844 14.328125 24.027344 20.632812 42.019531 14.085938 17.992188-6.546876 28.351563-23.472657 23.136719-37.800782s-24.027344-20.632812-42.019531-14.085937c-17.992188 6.546875-28.347657 23.472656-23.136719 37.800781zm0 0" fill="#ffdbdb"/><path d="m230.074219 131.292969c-12.269531 1.144531-24.035157 5.425781-34.167969 12.433593-4.199219 2.902344-7.199219 7.230469-8.453125 12.175782-1.691406 6.679687 3.074219 13.261718 9.949219 13.738281l19.070312 1.328125c5.679688.394531 11.261719-1.636719 15.355469-5.589844l13.757813-13.273437c4.960937-4.785157 4.378906-12.890625-1.210938-16.921875-4.140625-2.984375-9.21875-4.367188-14.300781-3.890625zm0 0" fill="#495059"/><path d="m232.859375 192.445312c-24.023437 8.742188-49.398437 5.601563-55.097656 31.808594-5.785157 26.585938 36.988281 48.976563 78.945312 33.703125 41.953125-15.269531 60.328125-59.914062 38.808594-76.5625-21.214844-16.414062-38.628906 2.304688-62.65625 11.050781zm0 0" fill="#d16283"/><path d="m204.699219 258.953125c14.625 5.132813 33.390625 5.78125 52.007812-.996094 18.617188-6.773437 32.574219-19.335937 40.480469-32.664062-15.804688-4.707031-33.976562-4.445313-51.648438 1.988281-17.671874 6.429688-31.761718 17.910156-40.839843 31.671875zm0 0" fill="#eb9898"/><path d="m377.828125 72.277344c14.871094 2.625 24.8125 16.769531 22.257813 31.632812-2.671876 15.554688-18.242188 25.304688-33.671876 21.988282-19.710937-4.234376-23.140624-17.445313-37.199218-23.019532-4.195313-1.664062-5.363282-7.054687-2.261719-10.332031 16.6875-17.625 31.835937-23.625 50.875-20.269531zm0 0" fill="#7f9ae6"/><path d="m52.179688 213.105469c-6.378907 13.683593-.496094 29.9375 13.148437 36.371093 14.269531 6.734376 31.1875-.425781 37.320313-14.96875 7.835937-18.574218-1.015626-28.964843 2.484374-43.675781 1.042969-4.390625-2.703124-8.441406-7.164062-7.777343-24.015625 3.558593-37.617188 12.527343-45.789062 30.050781zm0 0" fill="#7f9ae6"/><path d="m404.941406 162.867188c-4.140625 0-7.5 3.359374-7.5 7.5 0 4.144531 3.359375 7.5 7.5 7.5h34.496094c4.140625 0 7.5-3.355469 7.5-7.5 0-4.140626-3.359375-7.5-7.5-7.5zm-.304687-28.667969c.527343 3.746093 3.738281 6.453125 7.417969 6.453125.347656 0 .699218-.023438 1.054687-.074219l34.144531-4.8125c4.101563-.578125 6.957032-4.371094 6.378906-8.472656-.578124-4.101563-4.367187-6.957031-8.472656-6.382813l-34.144531 4.816406c-4.101563.578126-6.957031 4.371094-6.378906 8.472657zm23.199219 61.53125c-17.21875-4.25-34.695313 6.296875-38.949219 23.511719-2.230469 9.019531-6.753907 15.804687-13.703125 20.558593-1.386719-5.335937-4.035156-10.390625-7.929688-14.691406 3.261719-5.710937 5.941406-11.578125 7.996094-17.601563 8.066406-23.632812 6.253906-48.777343-5.121094-73.554687.769532.050781 1.539063.082031 2.308594.082031 7.195312 0 14.316406-2.128906 20.316406-6.183594 7.902344-5.34375 13.132813-13.394531 14.722656-22.671874 3.246094-18.886719-9.472656-36.957032-28.34375-40.285157-18.160156-3.203125-33.648437 1.230469-49.046874 14.316407-5.582032-5.324219-11.375-10.164063-17.378907-14.492188l12.164063 2.5625c2.132812.449219 4.261718.667969 6.359375.664062 14.25 0 27.082031-9.964843 30.132812-24.453124 1.699219-8.050782.15625-16.28125-4.335937-23.175782-4.492188-6.890625-11.402344-11.621094-19.453125-13.316406l-24.390625-5.140625c-19.238282-4.054687-39.515625-1.425781-57.089844 7.394531-12.78125 6.425782-23.792969 15.941406-32.070312 27.65625-19.496094.296875-39.804688 4.171875-60.5625 11.730469-19.785157 7.199219-37.066407 16.625-51.699219 28.046875-17.625-4.046875-36.300781-2.511719-53.015625 4.433594-18.15625 7.542968-33.390625 21.183594-42.886719 38.398437l-12.035156 21.824219c-8.199219 14.875-2.773438 33.648438 12.101562 41.851562 4.703125 2.59375 9.792969 3.824219 14.820313 3.824219 9.90625 0 19.535156-4.792969 25.414062-13.34375-1.023437 7.171875-1.601562 14.574219-1.75 22.175781-3.542968 4.054688-6.53125 8.730469-9.027344 14.082032-8.101562 17.371094-.585937 38.152344 16.742188 46.328125.339844.160156.6875.300781 1.03125.453125 4.125 11.179687 9.777344 21.167968 16.863281 29.707031 1.484375 1.789063 3.621094 2.710937 5.777344 2.710937 1.6875 0 3.382813-.566406 4.785156-1.726562 3.1875-2.648438 3.625-7.375.980469-10.5625-4.316406-5.203125-8.011719-11.078125-11.070312-17.53125 2.914062-.328125 5.816406-1.023438 8.648437-2.105469 9.148437-3.503906 16.59375-10.710937 20.417969-19.78125 5.328125-12.632812 4.03125-22.460937 2.988281-30.355469-.683594-5.179687-1.273437-9.652343-.117187-14.503906 1.0625-4.476562-.160157-9.175781-3.277344-12.574218-3.125-3.40625-7.722656-5.03125-12.285156-4.355469-10.511719 1.554687-19.351563 4.179687-26.773438 8.019531 2.414062-26.03125 10.773438-49.03125 24.988281-68.511719 16.917969-23.179687 41.648438-40.8125 73.507813-52.40625 20.53125-7.472656 40.429687-11.121093 59.457031-10.921875.085937 0 .171875.003906.257813 0 8.664062.105469 17.144531 1.007813 25.414062 2.714844 24.371094 5.019531 46.503906 16.933594 65.886719 35.414062-1.75 2.988282-2.347657 6.554688-1.578125 10.015626.996094 4.5 4.144531 8.195312 8.421875 9.894531 4.632812 1.835937 7.960937 4.882812 11.808593 8.414062 3.101563 2.84375 6.613282 6.050781 11.203126 8.871094 15.742187 25.507813 19.761718 51.597656 11.59375 75.523437-2.210938 6.476563-5.273438 12.773438-9.140626 18.875-.296874.382813-.558593.789063-.773437 1.207032-17.734375 27.132812-51.664063 50.296875-99.648437 67.761718-48.070313 17.496094-89.222657 21.527344-120.351563 11.976563-.140625-.050781-.28125-.09375-.425781-.136719-5.367188-1.671875-10.441406-3.738281-15.191406-6.222656-3.667969-1.921875-8.203126-.503906-10.125 3.167969-1.917969 3.667969-.5 8.199219 3.167968 10.121093 3.894532 2.039063 7.972656 3.828126 12.207032 5.390626-.128907 3.449218.25 6.820312 1.078124 10.035156-13.097656-2.949219-22.921874-9.46875-26.191406-11.855469-14.328125-10.453125-34.492187-7.300781-44.953125 7.027344-5.0625 6.945312-7.121093 15.441406-5.792969 23.933593 1.324219 8.492188 5.882813 15.957032 12.824219 21.023438 23.011719 16.785156 49.640625 25.65625 77.003907 25.65625 7.675781 0 15.367187-.75 22.929687-2.214844 8.675781 10.539063 19.394531 19.476563 31.792969 26.4375-7.460938 6.183594-16.597656 8-28.167969 5.679688-7.136719-1.4375-14.402344-.003906-20.460937 4.027344-6.054688 4.027343-10.175782 10.175781-11.609376 17.3125-1.433593 7.132812-.003906 14.398437 4.027344 20.453124 4.03125 6.058594 10.179688 10.183594 17.3125 11.617188 6.761719 1.355469 13.53125 2.046875 20.117188 2.046875 22.324218 0 53.097656-7.988281 75.113281-45.195313.089844.003907.179687.007813.269531.011719 4.738282 2.28125 10.105469 5.78125 11.507813 10.359375 1.496093 4.890625-.847657 12.613282-5.691407 18.777344-5.3125 6.753906-7.679687 15.171875-6.660156 23.703125 1.019532 8.535156 5.300782 16.160156 12.058594 21.472656 5.726562 4.507813 12.597656 6.886719 19.871094 6.886719 9.9375 0 19.164062-4.476562 25.304687-12.28125 18.175781-23.109375 24.398438-52.035156 16.648438-77.378906-.765625-2.488282-1.652344-4.933594-2.660157-7.320313 5.726563-2.976562 11.203126-6.320312 16.382813-10.007812.464844.40625.902344.828125 1.269531 1.292969 4.25 5.371093 4.589844 16.023437 2.753906 23.316406-4.332031 17.207031 6.140626 34.726562 23.339844 39.054687 2.582032.652344 5.234375.984375 7.875.984375 9.183594 0 17.957032-3.953125 24.070313-10.84375 2.746093-3.097656 2.464843-7.835937-.636719-10.585937-3.097656-2.75-7.839844-2.464844-10.585938.632812-3.269531 3.683594-7.949218 5.796875-12.847656 5.796875-1.40625 0-2.824218-.179687-4.210937-.527344-9.183594-2.3125-14.769531-11.664062-12.460938-20.847656 2.789063-11.0625 2.15625-26.574218-5.535156-36.289062-.386719-.488282-.800781-.957032-1.226563-1.417969 8.613282-7.722656 16.144532-16.511719 22.390626-26.179687 2.074218 1.957031 4 4.054687 5.761718 6.277343 12.144532 15.34375 14.558594 33.402344 14.445313 45.847657-.039063 4.144531 3.289062 7.53125 7.429687 7.570312h.070313c4.109375 0 7.460937-3.3125 7.5-7.429688.136719-14.867187-2.820313-36.523437-17.683594-55.296874-2.972656-3.757813-6.324219-7.214844-9.988281-10.34375 7.914062-16.304688 11.855468-33.492188 11.738281-50.554688 33.566406-11.523438 56.566406-36.460938 65.054687-70.78125 2.0625-8.34375.753907-16.992188-3.6875-24.347656-4.441406-7.359375-11.484374-12.546875-19.828124-14.609375zm-330.347657-5.011719c-1.320312 6.867188-.523437 12.921875.1875 18.3125.96875 7.34375 1.808594 13.6875-1.9375 22.5625-2.246093 5.324219-6.601562 9.554688-11.957031 11.601562-5.054688 1.933594-10.472656 1.757813-15.257812-.5-9.882813-4.664062-14.164063-16.515624-9.546876-26.421874 6.890626-14.773438 18.105469-22.25 38.511719-25.554688zm-27.355469-63.171875c-5.578124 3.625-10.207031 8.585937-13.460937 14.484375l-12.035156 21.824219c-4.207031 7.628906-13.835938 10.417969-21.46875 6.207031-7.632813-4.210938-10.414063-13.84375-6.207031-21.472656l12.035156-21.824219c7.859375-14.253906 20.472656-25.546875 35.503906-31.792969 10.332031-4.292968 21.566406-6.082031 32.671875-5.324218-11.125 11.210937-20.175781 23.890624-27.039063 37.898437zm213.445313-79.277344c-13.019531-5.503906-26.71875-9.003906-40.929687-10.515625 5.785156-6.164062 12.605468-11.289062 20.179687-15.09375 14.550781-7.304687 31.339844-9.476562 47.265625-6.125l24.390625 5.140625c4.128906.871094 7.671875 3.296875 9.976563 6.832031 2.308593 3.539063 3.097656 7.761719 2.226562 11.890626-1.796875 8.527343-10.195312 14-18.722656 12.207031l-24.386719-5.140625c-6.691406-1.410156-13.539063-1.121094-20 .804687zm75.03125 66.867188c-.035156-.023438-.074219-.042969-.113281-.066407-3.863282-2.152343-6.851563-4.882812-10.097656-7.859374-4.007813-3.675782-8.511719-7.804688-14.894532-10.660157.53125-.546875 1.058594-1.074219 1.582032-1.589843 0 0 .003906-.003907.003906-.003907.003906-.003906.007812-.007812.007812-.007812 13.75-13.5625 25.964844-18.007813 41.429688-15.285157 10.765625 1.898438 18.015625 12.207032 16.167968 22.976563-.894531 5.214844-3.859374 9.753906-8.34375 12.785156-4.746093 3.210938-10.707031 4.355469-16.359374 3.140625-3.765626-.808594-6.773438-1.992187-9.382813-3.429687zm-.164063 123.15625c4.347657 7.226562 3.820313 16.675781-1.746093 23.40625-11.566407 13.984375-24.847657 26.402343-39.515625 37.011719-6.871094-5.726563-15.492188-9.121094-24.503906-9.542969 28.796874-14.449219 50.933593-31.585938 65.765624-50.875zm-76.546874 67.40625c2.9375-1.070313 5.941406-1.578125 8.898437-1.578125 10.664063 0 20.699219 6.589844 24.550781 17.175781v-.003906c4.921875 13.523437-2.074218 28.53125-15.597656 33.453125-13.519531 4.917968-28.527344-2.078125-33.449219-15.597656-4.917969-13.523438 2.078125-28.53125 15.597657-33.449219zm-147.15625 69.925781c-24.167969 0-47.738282-7.878906-68.164063-22.777344-3.707031-2.703125-6.140625-6.6875-6.847656-11.21875-.707031-4.535156.390625-9.070312 3.09375-12.777344 5.582031-7.644531 16.34375-9.328124 23.996093-3.75 6.328126 4.617188 22.914063 15.0625 44.476563 16.128907 1.503906 1.480469 3.136719 2.832031 4.890625 4.03125.949219 3.945312 2.113281 7.847656 3.492188 11.636719 2.277343 6.261718 5.101562 12.226562 8.425781 17.863281-4.4375.566406-8.902344.863281-13.363281.863281zm1.253906-56.382812c9.828125 2.160156 20.375 3.242187 31.582031 3.242187 26.34375 0 56.316406-5.972656 89.042969-17.882813 1.019531-.371093 2.019531-.753906 3.027344-1.128906-6.570313 7.683594-10.175782 17.640625-9.894532 27.898438-31.609375 8.980468-65.140625 10.617187-97.375 4.695312-8.59375-1.582031-15.078125-8.488281-16.382812-16.824218zm34.6875 141.738281c-5.597656 0-11.375-.589844-17.167969-1.753907-3.203125-.640624-5.964844-2.496093-7.773437-5.21875-1.8125-2.71875-2.453126-5.984374-1.8125-9.1875.644531-3.207031 2.496093-5.96875 5.21875-7.78125 2.71875-1.808593 5.984374-2.453124 9.191406-1.804687 18.671875 3.75 33.980468-.789063 45.589844-13.484375 8.171874 3.273438 16.640624 5.667969 25.28125 7.191406-14.542969 21.269532-34.191407 32.039063-58.527344 32.039063zm119.980468 29.464843c-3.277343 4.164063-8.203124 6.554688-13.515624 6.554688-3.875 0-7.542969-1.269531-10.601563-3.675781-3.601563-2.835938-5.890625-6.90625-6.433594-11.460938-.542969-4.554687.71875-9.046875 3.554688-12.652343 8.066406-10.257813 11.230469-22.6875 8.246093-32.4375-.738281-2.417969-1.871093-4.703126-3.363281-6.859376 10.410157-1.28125 20.800781-3.757812 30.964844-7.457031 1.09375-.398437 2.175781-.8125 3.253906-1.234375.742188 1.796875 1.414063 3.632813 1.984375 5.503906 6.320313 20.648438 1.050782 44.46875-14.089844 63.71875zm68.683594-137.570312c-7.554687 14.28125-18.144531 26.757812-31.015625 36.785156-.289062.183594-.566406.394532-.832031.621094-9.84375 7.535156-20.984375 13.664062-33.113281 18.078125-14.972657 5.449219-30.46875 7.953125-45.679688 7.523437-.414062-.050781-.828125-.0625-1.238281-.042968-1.539062-.058594-3.070312-.144532-4.597656-.261719-.417969-.070313-.832032-.113281-1.25-.113281-11.230469-1-22.226563-3.613282-32.660156-7.851563-1.371094-.558593-2.714844-1.144531-4.046876-1.75-.035156-.015625-.066406-.03125-.097656-.042969-15.390625-7.011718-28.269531-17.226562-37.859375-29.863281-.15625-.238281-.328125-.464843-.507812-.683593-5.308594-7.128907-9.578125-15.007813-12.671875-23.507813-.03125-.085937-.058594-.171875-.089844-.261719 12.296875 2.035156 24.75 3.054688 37.214844 3.054688 20.898437 0 41.816406-2.855469 62.007812-8.5 6.515625 15.621094 21.773438 25.257812 37.957032 25.257812 4.660156 0 9.394531-.796875 14.015624-2.480468 21.292969-7.75 32.3125-31.378907 24.5625-52.671876 0-.003906 0-.003906 0-.003906-.746093-2.050781-1.644531-4.003906-2.667968-5.859375 14.289062-10.425781 27.324218-22.472656 38.855468-35.921875.03125.082032.066407.160156.09375.246094 3.019532 8.296875 4.796876 16.863281 5.359376 25.519531.003906.253907.023437.507813.050781.765625.992187 17.476563-2.972657 35.296875-11.789063 51.964844zm77.4375-121.789062c-6.894531 27.894531-25.117187 48.519531-51.726562 58.871093-1.0625-6.917969-2.800782-13.761719-5.238282-20.460937-1.378906-3.789063-2.996093-7.527344-4.808593-11.160156.144531-.515626.277343-1.039063.398437-1.5625 14.648438-6.5625 24.082032-17.945313 28.035156-33.933594 2.269532-9.1875 11.601563-14.824219 20.792969-12.546875 4.453125 1.101562 8.210938 3.871093 10.578125 7.796875 2.371094 3.925781 3.070313 8.542968 1.96875 12.996094zm-157.609375-137.078126c6.304688-2.292968 13.300781.964844 15.59375 7.269532 1.417969 3.894531 5.71875 5.898437 9.613281 4.484375 3.894532-1.417969 5.898438-5.722657 4.480469-9.613281-5.121093-14.078126-20.738281-21.359376-34.820312-16.238282-6.816407 2.480469-12.261719 7.472656-15.328125 14.046875-3.066406 6.578125-3.386719 13.953125-.90625 20.773438 1.109375 3.046875 3.984375 4.9375 7.050781 4.9375.847656 0 1.714844-.144531 2.5625-.453125 3.890625-1.417969 5.898437-5.722656 4.484375-9.613282-1.113281-3.054687-.96875-6.359374.40625-9.304687 1.371094-2.945313 3.808594-5.179687 6.863281-6.289063zm-144.847656 52.71875c3.054687-1.109374 6.355469-.964843 9.300781.40625 2.945313 1.375 5.179688 3.8125 6.292969 6.867188 1.414063 3.890625 5.714844 5.894531 9.613281 4.480469 3.890625-1.417969 5.898438-5.71875 4.480469-9.613281-2.480469-6.816407-7.46875-12.261719-14.046875-15.328126-6.578125-3.066406-13.953125-3.390624-20.773438-.90625-14.074218 5.121094-21.359374 20.742188-16.234374 34.816407 1.105468 3.046875 3.980468 4.9375 7.046874 4.9375.851563 0 1.71875-.144531 2.566407-.453125 3.890625-1.417969 5.898437-5.71875 4.480469-9.613282-1.113282-3.054687-.96875-6.355468.40625-9.300781 1.375-2.949219 3.8125-5.179687 6.867187-6.292969zm36.105469 75.933594c-2.515625 11.5625 1.933594 23.34375 12.199218 32.3125 10.183594 8.894532 26.75 15.53125 46.089844 15.53125 9.644532 0 19.980469-1.652344 30.550782-5.5 31.765624-11.5625 49.136718-36.933594 52.257812-56.945312 2.101562-13.472656-2.066406-25.351563-11.425781-32.597656-19.359375-14.980469-37.109375-5.90625-52.769531 2.097656-3.28125 1.675781-6.632813 3.386718-10.066407 4.953125l-3.292969-9.1875c1.074219-.769531 2.097657-1.621094 3.058594-2.550781l13.757813-13.273438c3.96875-3.828125 6.019531-9.179688 5.625-14.675781-.394531-5.5-3.183594-10.503907-7.65625-13.726563-5.609375-4.042968-12.496094-5.914062-19.382813-5.277344-13.523437 1.265626-26.574218 6.015626-37.742187 13.738282-5.6875 3.933594-9.753907 9.796875-11.453125 16.5-1.355469 5.34375-.277344 10.96875 2.957031 15.4375 3.234375 4.464844 8.242187 7.242187 13.742187 7.628906l19.070313 1.324219c.636719.042969 1.269531.0625 1.90625.0625.671875 0 1.34375-.03125 2.011719-.082031l3.300781 9.214843c-3.660156 1.019531-7.351563 1.867188-10.96875 2.699219-17.140625 3.9375-36.566406 8.394531-41.769531 32.316406zm46.558594-59.175781-19.070313-1.324219c-1.441406-.101562-2.269531-.957031-2.632813-1.460937-.363281-.503907-.921874-1.554688-.566406-2.957031.808594-3.1875 2.746094-5.976563 5.449219-7.847657 9.054687-6.261719 19.636719-10.113281 30.601563-11.136719 3.28125-.300781 6.546874.585938 9.21875 2.511719 1.171874.84375 1.421874 2.007813 1.464843 2.625.042969.621094-.035156 1.808594-1.078125 2.8125l-13.757812 13.273438c-2.5625 2.476562-6.070313 3.757812-9.628906 3.503906zm18.378906 36.027344c.007812-.003907.015625-.003907.019531-.007813.003906 0 .007813-.003906.011719-.003906.007812-.003906.015625-.003906.023437-.007812 6.796875-2.476563 12.867188-5.578126 18.738281-8.578126 9.910157-5.066406 17.144532-8.515624 23.820313-8.515624 4.355469 0 8.476563 1.472656 12.941406 4.925781 6.382813 4.9375 6.667969 12.742187 5.78125 18.421875-2.363281 15.148437-16.691406 35.746094-42.566406 45.164062-25.878906 9.417969-50.089844 2.851563-61.640625-7.234375-4.328125-3.78125-9.125-9.941406-7.410156-17.828125 3.039062-13.96875 12.539062-16.765625 30.472656-20.882812 6.40625-1.472656 13.03125-2.992188 19.808594-5.453125zm0 0"/></svg>